<?xml version="1.0" encoding="UTF-8"?>
<!DOCTYPE svg PUBLIC "-//W3C//DTD SVG 1.1//EN" "http://www.w3.org/Graphics/SVG/1.1/DTD/svg11.dtd">
<!-- Creator: CorelDRAW 2021 (64-Bit) -->
<svg xmlns="http://www.w3.org/2000/svg" xml:space="preserve" width="64.9855in" height="1.08443in" version="1.1" style="shape-rendering:geometricPrecision; text-rendering:geometricPrecision; image-rendering:optimizeQuality; fill-rule:evenodd; clip-rule:evenodd"
viewBox="0 0 122780.7 2048.88"
 xmlns:xlink="http://www.w3.org/1999/xlink"
 xmlns:xodm="http://www.corel.com/coreldraw/odm/2003">
 <defs>
  <style type="text/css">
   <![CDATA[
    .fil0 {fill:none}
   ]]>
  </style>
   <clipPath id="id0">
    <path d="M-0 0l61390.35 0 61390.35 0 0 2048.88 -61390.35 0 -61390.35 0 0 -2048.88z"/>
   </clipPath>
    <clipPath id="id1">
     <path d="M-0 0l59412.76 0 0 2048.88 -59412.76 0 0 -2048.88z"/>
    </clipPath>
    <clipPath id="id2">
     <path d="M-0 0l61390.35 0 61390.35 0 0 2048.88 -61390.35 0 -61390.35 0 0 -2048.88z"/>
    </clipPath>
    <clipPath id="id3">
     <path d="M59412.76 0l1977.59 0 61390.35 0 0 2048.88 -61390.35 0 -1977.59 0 0 -2048.88z"/>
    </clipPath>
    <clipPath id="id4">
     <path d="M-0 0l61390.35 0 61390.35 0 0 2048.88 -61390.35 0 -61390.35 0 0 -2048.88z"/>
    </clipPath>
 </defs>
 <g id="Speech_x0020_Bubble">
  <metadata id="CorelCorpID_0Corel-Layer"/>
  <g>
  </g>
  <g style="clip-path:url(#id0)">
   <g>
   </g>
   <g style="clip-path:url(#id1)">
    <image x="-6061.89" y="-24105.84" width="65474.64" height="43681.4" xlink:href="line_Images\line_ImgID1.png"/>
   </g>
   <g style="clip-path:url(#id2)">
   </g>
   <g style="clip-path:url(#id3)">
    <image transform="matrix(-1.20537 -0 -0 1.20537 124887 -24105.8)" x="0" y="0" width="54318.98" height="36238.9" xlink:href="line_Images\line_ImgID2.png"/>
   </g>
   <g style="clip-path:url(#id4)">
   </g>
  </g>
  <polygon class="fil0" points="-0,0 61390.35,0 122780.7,0 122780.7,2048.88 61390.35,2048.88 -0,2048.88 "/>
 </g>
</svg>
